%TF.GenerationSoftware,KiCad,Pcbnew,10.0.3*%
%TF.CreationDate,2026-07-04T11:49:47+02:00*%
%TF.ProjectId,TelemetryFirstVersion,54656c65-6d65-4747-9279-466972737456,rev?*%
%TF.SameCoordinates,Original*%
%TF.FileFunction,Paste,Top*%
%TF.FilePolarity,Positive*%
%FSLAX46Y46*%
G04 Gerber Fmt 4.6, Leading zero omitted, Abs format (unit mm)*
G04 Created by KiCad (PCBNEW 10.0.3) date 2026-07-04 11:49:47*
%MOMM*%
%LPD*%
G01*
G04 APERTURE LIST*
G04 Aperture macros list*
%AMRoundRect*
0 Rectangle with rounded corners*
0 $1 Rounding radius*
0 $2 $3 $4 $5 $6 $7 $8 $9 X,Y pos of 4 corners*
0 Add a 4 corners polygon primitive as box body*
4,1,4,$2,$3,$4,$5,$6,$7,$8,$9,$2,$3,0*
0 Add four circle primitives for the rounded corners*
1,1,$1+$1,$2,$3*
1,1,$1+$1,$4,$5*
1,1,$1+$1,$6,$7*
1,1,$1+$1,$8,$9*
0 Add four rect primitives between the rounded corners*
20,1,$1+$1,$2,$3,$4,$5,0*
20,1,$1+$1,$4,$5,$6,$7,0*
20,1,$1+$1,$6,$7,$8,$9,0*
20,1,$1+$1,$8,$9,$2,$3,0*%
G04 Aperture macros list end*
%ADD10RoundRect,0.375000X-0.625000X-0.375000X0.625000X-0.375000X0.625000X0.375000X-0.625000X0.375000X0*%
%ADD11RoundRect,0.500000X-0.500000X-1.400000X0.500000X-1.400000X0.500000X1.400000X-0.500000X1.400000X0*%
%ADD12RoundRect,0.125000X-0.625000X-0.125000X0.625000X-0.125000X0.625000X0.125000X-0.625000X0.125000X0*%
%ADD13RoundRect,0.125000X-0.125000X-0.625000X0.125000X-0.625000X0.125000X0.625000X-0.125000X0.625000X0*%
%ADD14RoundRect,0.250000X0.262500X0.450000X-0.262500X0.450000X-0.262500X-0.450000X0.262500X-0.450000X0*%
%ADD15RoundRect,0.250000X0.475000X-0.250000X0.475000X0.250000X-0.475000X0.250000X-0.475000X-0.250000X0*%
%ADD16RoundRect,0.175000X-0.425000X0.175000X-0.425000X-0.175000X0.425000X-0.175000X0.425000X0.175000X0*%
%ADD17RoundRect,0.190000X0.410000X-0.190000X0.410000X0.190000X-0.410000X0.190000X-0.410000X-0.190000X0*%
%ADD18RoundRect,0.200000X0.400000X-0.200000X0.400000X0.200000X-0.400000X0.200000X-0.400000X-0.200000X0*%
%ADD19RoundRect,0.175000X0.425000X-0.175000X0.425000X0.175000X-0.425000X0.175000X-0.425000X-0.175000X0*%
%ADD20RoundRect,0.190000X-0.410000X0.190000X-0.410000X-0.190000X0.410000X-0.190000X0.410000X0.190000X0*%
%ADD21RoundRect,0.200000X-0.400000X0.200000X-0.400000X-0.200000X0.400000X-0.200000X0.400000X0.200000X0*%
%ADD22O,1.700000X1.100000*%
%ADD23RoundRect,0.087500X0.087500X-0.250000X0.087500X0.250000X-0.087500X0.250000X-0.087500X-0.250000X0*%
%ADD24RoundRect,0.250000X-0.262500X-0.450000X0.262500X-0.450000X0.262500X0.450000X-0.262500X0.450000X0*%
%ADD25RoundRect,0.250000X0.250000X0.475000X-0.250000X0.475000X-0.250000X-0.475000X0.250000X-0.475000X0*%
%ADD26RoundRect,0.250000X-0.450000X0.262500X-0.450000X-0.262500X0.450000X-0.262500X0.450000X0.262500X0*%
%ADD27RoundRect,0.250000X0.450000X-0.262500X0.450000X0.262500X-0.450000X0.262500X-0.450000X-0.262500X0*%
%ADD28RoundRect,0.243750X-0.243750X-0.456250X0.243750X-0.456250X0.243750X0.456250X-0.243750X0.456250X0*%
%ADD29RoundRect,0.250000X-0.250000X-0.475000X0.250000X-0.475000X0.250000X0.475000X-0.250000X0.475000X0*%
G04 APERTURE END LIST*
D10*
%TO.C,U1*%
X121600000Y-100450000D03*
X121600000Y-102750000D03*
D11*
X127900000Y-102750000D03*
D10*
X121600000Y-105050000D03*
%TD*%
D12*
%TO.C,U2*%
X138362500Y-94987500D03*
X138362500Y-95787500D03*
X138362500Y-96587500D03*
X138362500Y-97387500D03*
X138362500Y-98187500D03*
X138362500Y-98987500D03*
X138362500Y-99787500D03*
X138362500Y-100587500D03*
D13*
X139737500Y-101962500D03*
X140537500Y-101962500D03*
X141337500Y-101962500D03*
X142137500Y-101962500D03*
X142937500Y-101962500D03*
X143737500Y-101962500D03*
X144537500Y-101962500D03*
X145337500Y-101962500D03*
D12*
X146712500Y-100587500D03*
X146712500Y-99787500D03*
X146712500Y-98987500D03*
X146712500Y-98187500D03*
X146712500Y-97387500D03*
X146712500Y-96587500D03*
X146712500Y-95787500D03*
X146712500Y-94987500D03*
D13*
X145337500Y-93612500D03*
X144537500Y-93612500D03*
X143737500Y-93612500D03*
X142937500Y-93612500D03*
X142137500Y-93612500D03*
X141337500Y-93612500D03*
X140537500Y-93612500D03*
X139737500Y-93612500D03*
%TD*%
D14*
%TO.C,R6*%
X134000000Y-103000000D03*
X132175000Y-103000000D03*
%TD*%
D15*
%TO.C,C4*%
X136250000Y-101287500D03*
X136250000Y-99387500D03*
%TD*%
D16*
%TO.C,J1*%
X125380000Y-91430000D03*
D17*
X125380000Y-93450000D03*
D18*
X125380000Y-94680000D03*
D19*
X125380000Y-92430000D03*
D20*
X125380000Y-90410000D03*
D21*
X125380000Y-89180000D03*
D22*
X125300000Y-87610000D03*
X121500000Y-87610000D03*
X125300000Y-96250000D03*
X121500000Y-96250000D03*
%TD*%
D23*
%TO.C,U3*%
X150937500Y-98787500D03*
X151437500Y-98787500D03*
X151937500Y-98787500D03*
X151937500Y-97362500D03*
X151437500Y-97362500D03*
X150937500Y-97362500D03*
%TD*%
D24*
%TO.C,R5*%
X139837500Y-107750000D03*
X141662500Y-107750000D03*
%TD*%
D25*
%TO.C,C5*%
X155437500Y-98787500D03*
X153537500Y-98787500D03*
%TD*%
D26*
%TO.C,R1*%
X128000000Y-89175000D03*
X128000000Y-91000000D03*
%TD*%
D27*
%TO.C,R4*%
X128250000Y-95000000D03*
X128250000Y-93175000D03*
%TD*%
D14*
%TO.C,R3*%
X152437500Y-95287500D03*
X150612500Y-95287500D03*
%TD*%
D28*
%TO.C,D1*%
X135775000Y-107750000D03*
X137650000Y-107750000D03*
%TD*%
D14*
%TO.C,R2*%
X152037500Y-100787500D03*
X150212500Y-100787500D03*
%TD*%
D29*
%TO.C,C1*%
X121300000Y-108000000D03*
X123200000Y-108000000D03*
%TD*%
%TO.C,C2*%
X131300000Y-107750000D03*
X133200000Y-107750000D03*
%TD*%
D25*
%TO.C,C3*%
X136500000Y-97500000D03*
X134600000Y-97500000D03*
%TD*%
M02*
