%TF.GenerationSoftware,KiCad,Pcbnew,10.0.3*%
%TF.CreationDate,2026-07-04T11:49:47+02:00*%
%TF.ProjectId,TelemetryFirstVersion,54656c65-6d65-4747-9279-466972737456,rev?*%
%TF.SameCoordinates,Original*%
%TF.FileFunction,Copper,L2,Bot*%
%TF.FilePolarity,Positive*%
%FSLAX46Y46*%
G04 Gerber Fmt 4.6, Leading zero omitted, Abs format (unit mm)*
G04 Created by KiCad (PCBNEW 10.0.3) date 2026-07-04 11:49:47*
%MOMM*%
%LPD*%
G01*
G04 APERTURE LIST*
%TA.AperFunction,ComponentPad*%
%ADD10O,1.700000X1.100000*%
%TD*%
%TA.AperFunction,ComponentPad*%
%ADD11R,1.700000X1.700000*%
%TD*%
%TA.AperFunction,ComponentPad*%
%ADD12C,1.700000*%
%TD*%
%TA.AperFunction,ViaPad*%
%ADD13C,0.600000*%
%TD*%
%TA.AperFunction,Conductor*%
%ADD14C,0.500000*%
%TD*%
%TA.AperFunction,Conductor*%
%ADD15C,0.200000*%
%TD*%
G04 APERTURE END LIST*
D10*
%TO.P,J1,SH,SHIELD_SH*%
%TO.N,GND*%
X125300000Y-87610000D03*
X121500000Y-87610000D03*
X125300000Y-96250000D03*
X121500000Y-96250000D03*
%TD*%
D11*
%TO.P,UART1,1,Pin_1_1*%
%TO.N,/USART2_RX*%
X150750000Y-108250000D03*
D12*
%TO.P,UART1,2,Pin_2_2*%
%TO.N,/USART2_TX*%
X148210000Y-108250000D03*
%TO.P,UART1,3,Pin_3_3*%
%TO.N,GND*%
X145670000Y-108250000D03*
%TD*%
D11*
%TO.P,SWD1,1,Pin_1_1*%
%TO.N,/SWDIO*%
X137340000Y-88250000D03*
D12*
%TO.P,SWD1,2,Pin_2_2*%
%TO.N,/SWCLK*%
X139880000Y-88250000D03*
%TO.P,SWD1,3,Pin_3_3*%
%TO.N,/NRST*%
X142420000Y-88250000D03*
%TO.P,SWD1,4,Pin_4_4*%
%TO.N,/+3V3*%
X144960000Y-88250000D03*
%TO.P,SWD1,5,Pin_5_5*%
%TO.N,GND*%
X147500000Y-88250000D03*
%TD*%
D13*
%TO.N,/+3V3*%
X152750000Y-96750000D03*
X131062500Y-100812500D03*
X134500000Y-95000000D03*
X151500000Y-104500000D03*
%TO.N,GND*%
X124500000Y-101250000D03*
X139500000Y-97859258D03*
X137500000Y-106000000D03*
X124750000Y-108500000D03*
X149500000Y-98000000D03*
%TO.N,Net-(U1-VI)*%
X123750000Y-94500000D03*
X124450000Y-105050000D03*
%TO.N,/SWDIO*%
X147250000Y-93500000D03*
X138500000Y-90750000D03*
%TD*%
%TO.N,/+3V3*%
D14*
X135500000Y-105250000D02*
X150750000Y-105250000D01*
X133000000Y-95000000D02*
X131062500Y-96937500D01*
X153500000Y-102500000D02*
X151500000Y-104500000D01*
X153500000Y-97500000D02*
X153500000Y-102500000D01*
X131062500Y-100812500D02*
X135500000Y-105250000D01*
X152750000Y-96750000D02*
X153500000Y-97500000D01*
X131062500Y-96937500D02*
X131062500Y-100812500D01*
X134500000Y-95000000D02*
X133000000Y-95000000D01*
X150750000Y-105250000D02*
X151500000Y-104500000D01*
%TO.N,Net-(U1-VI)*%
D15*
X123750000Y-103750000D02*
X123750000Y-94500000D01*
X124450000Y-105050000D02*
X124500000Y-105000000D01*
X124500000Y-104500000D02*
X123750000Y-103750000D01*
X124500000Y-105000000D02*
X124500000Y-104500000D01*
%TO.N,/SWDIO*%
X147250000Y-92250000D02*
X147250000Y-93500000D01*
X138500000Y-90750000D02*
X138750000Y-91000000D01*
X146000000Y-91000000D02*
X147250000Y-92250000D01*
X138750000Y-91000000D02*
X146000000Y-91000000D01*
%TD*%
%TA.AperFunction,Conductor*%
%TO.N,GND*%
G36*
X158442538Y-86770184D02*
G01*
X158488293Y-86822988D01*
X158499499Y-86874499D01*
X158499499Y-111125500D01*
X158479814Y-111192539D01*
X158427010Y-111238294D01*
X158375499Y-111249500D01*
X119374500Y-111249500D01*
X119307461Y-111229815D01*
X119261706Y-111177011D01*
X119250500Y-111125500D01*
X119250500Y-108348543D01*
X147209499Y-108348543D01*
X147247947Y-108541829D01*
X147247950Y-108541839D01*
X147323364Y-108723907D01*
X147323371Y-108723920D01*
X147432860Y-108887781D01*
X147432863Y-108887785D01*
X147572214Y-109027136D01*
X147572218Y-109027139D01*
X147736079Y-109136628D01*
X147736092Y-109136635D01*
X147918160Y-109212049D01*
X147918165Y-109212051D01*
X147918169Y-109212051D01*
X147918170Y-109212052D01*
X148111456Y-109250500D01*
X148111459Y-109250500D01*
X148308543Y-109250500D01*
X148438582Y-109224632D01*
X148501835Y-109212051D01*
X148683914Y-109136632D01*
X148716555Y-109114822D01*
X149749499Y-109114822D01*
X149758231Y-109158717D01*
X149758232Y-109158721D01*
X149758233Y-109158722D01*
X149791496Y-109208504D01*
X149841278Y-109241767D01*
X149841281Y-109241767D01*
X149841282Y-109241768D01*
X149885177Y-109250500D01*
X149885180Y-109250500D01*
X151614822Y-109250500D01*
X151658717Y-109241768D01*
X151658717Y-109241767D01*
X151658722Y-109241767D01*
X151708504Y-109208504D01*
X151741767Y-109158722D01*
X151750500Y-109114820D01*
X151750500Y-107385180D01*
X151750500Y-107385177D01*
X151741768Y-107341282D01*
X151741767Y-107341281D01*
X151741767Y-107341278D01*
X151708504Y-107291496D01*
X151703197Y-107287950D01*
X151658724Y-107258234D01*
X151658717Y-107258231D01*
X151614822Y-107249500D01*
X151614820Y-107249500D01*
X149885180Y-107249500D01*
X149885178Y-107249500D01*
X149841282Y-107258231D01*
X149841275Y-107258234D01*
X149791496Y-107291495D01*
X149791495Y-107291496D01*
X149758234Y-107341275D01*
X149758231Y-107341282D01*
X149749500Y-107385177D01*
X149749500Y-107385180D01*
X149749500Y-109114820D01*
X149749500Y-109114822D01*
X149749499Y-109114822D01*
X148716555Y-109114822D01*
X148847782Y-109027139D01*
X148987139Y-108887782D01*
X149096632Y-108723914D01*
X149172051Y-108541835D01*
X149210500Y-108348541D01*
X149210500Y-108151459D01*
X149210500Y-108151456D01*
X149172052Y-107958170D01*
X149172051Y-107958169D01*
X149172051Y-107958165D01*
X149172049Y-107958160D01*
X149096635Y-107776092D01*
X149096628Y-107776079D01*
X148987139Y-107612218D01*
X148987136Y-107612214D01*
X148847785Y-107472863D01*
X148847782Y-107472861D01*
X148683920Y-107363371D01*
X148683907Y-107363364D01*
X148501839Y-107287950D01*
X148501829Y-107287947D01*
X148308543Y-107249500D01*
X148308541Y-107249500D01*
X148111459Y-107249500D01*
X148111457Y-107249500D01*
X147918170Y-107287947D01*
X147918160Y-107287950D01*
X147736092Y-107363364D01*
X147736079Y-107363371D01*
X147572218Y-107472860D01*
X147572214Y-107472863D01*
X147432863Y-107612214D01*
X147432860Y-107612218D01*
X147323371Y-107776079D01*
X147323364Y-107776092D01*
X147247950Y-107958160D01*
X147247947Y-107958170D01*
X147209500Y-108151456D01*
X147209500Y-108151459D01*
X147209500Y-108348541D01*
X147209500Y-108348543D01*
X147209499Y-108348543D01*
X119250500Y-108348543D01*
X119250500Y-94440691D01*
X123299500Y-94440691D01*
X123299500Y-94559309D01*
X123330201Y-94673886D01*
X123389511Y-94776613D01*
X123389513Y-94776615D01*
X123463181Y-94850283D01*
X123496666Y-94911606D01*
X123499500Y-94937964D01*
X123499500Y-103799829D01*
X123537636Y-103891897D01*
X124166637Y-104520898D01*
X124200122Y-104582221D01*
X124195138Y-104651913D01*
X124166638Y-104696260D01*
X124089511Y-104773387D01*
X124039222Y-104860490D01*
X124030201Y-104876114D01*
X123999500Y-104990691D01*
X123999500Y-105109309D01*
X124030201Y-105223886D01*
X124089511Y-105326613D01*
X124173387Y-105410489D01*
X124276114Y-105469799D01*
X124390691Y-105500500D01*
X124390694Y-105500500D01*
X124509306Y-105500500D01*
X124509309Y-105500500D01*
X124623886Y-105469799D01*
X124726613Y-105410489D01*
X124810489Y-105326613D01*
X124869799Y-105223886D01*
X124900500Y-105109309D01*
X124900500Y-104990691D01*
X124869799Y-104876114D01*
X124810489Y-104773387D01*
X124786819Y-104749717D01*
X124753334Y-104688394D01*
X124750500Y-104662036D01*
X124750500Y-104450173D01*
X124750499Y-104450170D01*
X124724287Y-104386888D01*
X124712364Y-104358103D01*
X124641897Y-104287636D01*
X124036819Y-103682558D01*
X124003334Y-103621235D01*
X124000500Y-103594877D01*
X124000500Y-100753191D01*
X130612000Y-100753191D01*
X130612000Y-100871809D01*
X130642701Y-100986386D01*
X130702011Y-101089113D01*
X130785887Y-101172989D01*
X130888614Y-101232299D01*
X130893798Y-101233688D01*
X130949390Y-101265783D01*
X135175179Y-105491571D01*
X135175189Y-105491582D01*
X135179519Y-105495912D01*
X135179520Y-105495913D01*
X135254087Y-105570480D01*
X135345413Y-105623207D01*
X135447273Y-105650501D01*
X135447275Y-105650501D01*
X135560323Y-105650501D01*
X135560339Y-105650500D01*
X150802725Y-105650500D01*
X150802727Y-105650500D01*
X150904588Y-105623207D01*
X150995913Y-105570480D01*
X151613110Y-104953281D01*
X151668704Y-104921187D01*
X151673886Y-104919799D01*
X151776613Y-104860489D01*
X151860489Y-104776613D01*
X151919799Y-104673886D01*
X151921187Y-104668704D01*
X151953281Y-104613110D01*
X153820480Y-102745913D01*
X153873207Y-102654588D01*
X153900500Y-102552727D01*
X153900500Y-102447273D01*
X153900500Y-97447273D01*
X153873207Y-97345413D01*
X153873207Y-97345412D01*
X153820480Y-97254087D01*
X153203283Y-96636890D01*
X153171188Y-96581298D01*
X153169799Y-96576114D01*
X153169798Y-96576112D01*
X153110489Y-96473387D01*
X153026613Y-96389511D01*
X152923886Y-96330201D01*
X152809309Y-96299500D01*
X152690691Y-96299500D01*
X152576114Y-96330201D01*
X152576112Y-96330201D01*
X152576112Y-96330202D01*
X152473387Y-96389511D01*
X152473384Y-96389513D01*
X152389513Y-96473384D01*
X152389511Y-96473387D01*
X152330201Y-96576114D01*
X152299500Y-96690691D01*
X152299500Y-96809309D01*
X152330201Y-96923886D01*
X152389511Y-97026613D01*
X152473387Y-97110489D01*
X152550056Y-97154754D01*
X152576114Y-97169799D01*
X152581298Y-97171188D01*
X152636890Y-97203283D01*
X153063181Y-97629574D01*
X153096666Y-97690897D01*
X153099500Y-97717255D01*
X153099500Y-102282744D01*
X153079815Y-102349783D01*
X153063181Y-102370425D01*
X151386888Y-104046717D01*
X151331305Y-104078810D01*
X151326115Y-104080200D01*
X151326114Y-104080201D01*
X151223390Y-104139509D01*
X151223384Y-104139513D01*
X151139513Y-104223384D01*
X151139509Y-104223390D01*
X151080201Y-104326114D01*
X151080200Y-104326115D01*
X151078810Y-104331305D01*
X151046717Y-104386888D01*
X150620426Y-104813181D01*
X150559103Y-104846666D01*
X150532745Y-104849500D01*
X135717254Y-104849500D01*
X135650215Y-104829815D01*
X135629573Y-104813181D01*
X131515783Y-100699390D01*
X131511151Y-100692458D01*
X131506912Y-100689515D01*
X131499704Y-100675326D01*
X131488903Y-100659161D01*
X131485791Y-100651649D01*
X131482299Y-100638614D01*
X131475550Y-100626925D01*
X131472439Y-100619413D01*
X131470244Y-100598997D01*
X131463000Y-100571961D01*
X131463000Y-97154754D01*
X131482685Y-97087715D01*
X131499319Y-97067073D01*
X133129573Y-95436819D01*
X133190896Y-95403334D01*
X133217254Y-95400500D01*
X134259462Y-95400500D01*
X134321463Y-95417114D01*
X134326109Y-95419796D01*
X134326110Y-95419797D01*
X134326114Y-95419799D01*
X134440691Y-95450500D01*
X134440694Y-95450500D01*
X134559306Y-95450500D01*
X134559309Y-95450500D01*
X134673886Y-95419799D01*
X134776613Y-95360489D01*
X134860489Y-95276613D01*
X134919799Y-95173886D01*
X134950500Y-95059309D01*
X134950500Y-94940691D01*
X134919799Y-94826114D01*
X134860489Y-94723387D01*
X134776613Y-94639511D01*
X134673886Y-94580201D01*
X134559309Y-94549500D01*
X134440691Y-94549500D01*
X134371944Y-94567920D01*
X134326112Y-94580201D01*
X134326109Y-94580203D01*
X134321463Y-94582886D01*
X134259462Y-94599500D01*
X132947273Y-94599500D01*
X132845412Y-94626793D01*
X132845409Y-94626794D01*
X132799750Y-94653155D01*
X132799750Y-94653156D01*
X132754087Y-94679520D01*
X132754084Y-94679522D01*
X130742022Y-96691584D01*
X130742018Y-96691590D01*
X130689292Y-96782912D01*
X130689293Y-96782913D01*
X130662000Y-96884773D01*
X130662000Y-100571961D01*
X130661839Y-100572561D01*
X130657130Y-100606371D01*
X130652938Y-100620881D01*
X130642701Y-100638614D01*
X130612000Y-100753191D01*
X124000500Y-100753191D01*
X124000500Y-94937964D01*
X124020185Y-94870925D01*
X124036819Y-94850283D01*
X124060990Y-94826112D01*
X124110489Y-94776613D01*
X124169799Y-94673886D01*
X124200500Y-94559309D01*
X124200500Y-94440691D01*
X124169799Y-94326114D01*
X124110489Y-94223387D01*
X124026613Y-94139511D01*
X123923886Y-94080201D01*
X123809309Y-94049500D01*
X123690691Y-94049500D01*
X123576114Y-94080201D01*
X123576112Y-94080201D01*
X123576112Y-94080202D01*
X123473387Y-94139511D01*
X123473384Y-94139513D01*
X123389513Y-94223384D01*
X123389511Y-94223387D01*
X123330201Y-94326114D01*
X123299500Y-94440691D01*
X119250500Y-94440691D01*
X119250500Y-90690691D01*
X138049500Y-90690691D01*
X138049500Y-90809309D01*
X138080201Y-90923886D01*
X138139511Y-91026613D01*
X138223387Y-91110489D01*
X138326114Y-91169799D01*
X138440691Y-91200500D01*
X138440694Y-91200500D01*
X138554797Y-91200500D01*
X138602250Y-91209939D01*
X138608101Y-91212362D01*
X138608103Y-91212364D01*
X138700172Y-91250500D01*
X145844877Y-91250500D01*
X145911916Y-91270185D01*
X145932558Y-91286819D01*
X146963181Y-92317441D01*
X146996666Y-92378764D01*
X146999500Y-92405122D01*
X146999500Y-93062035D01*
X146979815Y-93129074D01*
X146963182Y-93149716D01*
X146889511Y-93223387D01*
X146830201Y-93326114D01*
X146799500Y-93440691D01*
X146799500Y-93559309D01*
X146830201Y-93673886D01*
X146889511Y-93776613D01*
X146973387Y-93860489D01*
X147076114Y-93919799D01*
X147190691Y-93950500D01*
X147190694Y-93950500D01*
X147309306Y-93950500D01*
X147309309Y-93950500D01*
X147423886Y-93919799D01*
X147526613Y-93860489D01*
X147610489Y-93776613D01*
X147669799Y-93673886D01*
X147700500Y-93559309D01*
X147700500Y-93440691D01*
X147669799Y-93326114D01*
X147610489Y-93223387D01*
X147536818Y-93149716D01*
X147503334Y-93088392D01*
X147500500Y-93062035D01*
X147500500Y-92200173D01*
X147500499Y-92200170D01*
X147462364Y-92108103D01*
X147391897Y-92037636D01*
X147384832Y-92030571D01*
X147384825Y-92030565D01*
X146141897Y-90787636D01*
X146049829Y-90749500D01*
X146049828Y-90749500D01*
X139061406Y-90749500D01*
X138994367Y-90729815D01*
X138948612Y-90677011D01*
X138941633Y-90657600D01*
X138919799Y-90576114D01*
X138860489Y-90473387D01*
X138776613Y-90389511D01*
X138673886Y-90330201D01*
X138559309Y-90299500D01*
X138440691Y-90299500D01*
X138326114Y-90330201D01*
X138326112Y-90330201D01*
X138326112Y-90330202D01*
X138223387Y-90389511D01*
X138223384Y-90389513D01*
X138139513Y-90473384D01*
X138139511Y-90473387D01*
X138080201Y-90576114D01*
X138049500Y-90690691D01*
X119250500Y-90690691D01*
X119250500Y-89114822D01*
X136339499Y-89114822D01*
X136348231Y-89158717D01*
X136348232Y-89158721D01*
X136348233Y-89158722D01*
X136381496Y-89208504D01*
X136431278Y-89241767D01*
X136431281Y-89241767D01*
X136431282Y-89241768D01*
X136475177Y-89250500D01*
X136475180Y-89250500D01*
X138204822Y-89250500D01*
X138248717Y-89241768D01*
X138248717Y-89241767D01*
X138248722Y-89241767D01*
X138298504Y-89208504D01*
X138331767Y-89158722D01*
X138340500Y-89114820D01*
X138340500Y-88348543D01*
X138879499Y-88348543D01*
X138917947Y-88541829D01*
X138917950Y-88541839D01*
X138993364Y-88723907D01*
X138993371Y-88723920D01*
X139102860Y-88887781D01*
X139102863Y-88887785D01*
X139242214Y-89027136D01*
X139242218Y-89027139D01*
X139406079Y-89136628D01*
X139406092Y-89136635D01*
X139588160Y-89212049D01*
X139588165Y-89212051D01*
X139588169Y-89212051D01*
X139588170Y-89212052D01*
X139781456Y-89250500D01*
X139781459Y-89250500D01*
X139978543Y-89250500D01*
X140108582Y-89224632D01*
X140171835Y-89212051D01*
X140353914Y-89136632D01*
X140517782Y-89027139D01*
X140657139Y-88887782D01*
X140766632Y-88723914D01*
X140842051Y-88541835D01*
X140880500Y-88348543D01*
X141419499Y-88348543D01*
X141457947Y-88541829D01*
X141457950Y-88541839D01*
X141533364Y-88723907D01*
X141533371Y-88723920D01*
X141642860Y-88887781D01*
X141642863Y-88887785D01*
X141782214Y-89027136D01*
X141782218Y-89027139D01*
X141946079Y-89136628D01*
X141946092Y-89136635D01*
X142128160Y-89212049D01*
X142128165Y-89212051D01*
X142128169Y-89212051D01*
X142128170Y-89212052D01*
X142321456Y-89250500D01*
X142321459Y-89250500D01*
X142518543Y-89250500D01*
X142648582Y-89224632D01*
X142711835Y-89212051D01*
X142893914Y-89136632D01*
X143057782Y-89027139D01*
X143197139Y-88887782D01*
X143306632Y-88723914D01*
X143382051Y-88541835D01*
X143420500Y-88348543D01*
X143959499Y-88348543D01*
X143997947Y-88541829D01*
X143997950Y-88541839D01*
X144073364Y-88723907D01*
X144073371Y-88723920D01*
X144182860Y-88887781D01*
X144182863Y-88887785D01*
X144322214Y-89027136D01*
X144322218Y-89027139D01*
X144486079Y-89136628D01*
X144486092Y-89136635D01*
X144668160Y-89212049D01*
X144668165Y-89212051D01*
X144668169Y-89212051D01*
X144668170Y-89212052D01*
X144861456Y-89250500D01*
X144861459Y-89250500D01*
X145058543Y-89250500D01*
X145188582Y-89224632D01*
X145251835Y-89212051D01*
X145433914Y-89136632D01*
X145597782Y-89027139D01*
X145737139Y-88887782D01*
X145846632Y-88723914D01*
X145922051Y-88541835D01*
X145960500Y-88348541D01*
X145960500Y-88151459D01*
X145960500Y-88151456D01*
X145922052Y-87958170D01*
X145922051Y-87958169D01*
X145922051Y-87958165D01*
X145922049Y-87958160D01*
X145846635Y-87776092D01*
X145846628Y-87776079D01*
X145737139Y-87612218D01*
X145737136Y-87612214D01*
X145597785Y-87472863D01*
X145597781Y-87472860D01*
X145433920Y-87363371D01*
X145433907Y-87363364D01*
X145251839Y-87287950D01*
X145251829Y-87287947D01*
X145058543Y-87249500D01*
X145058541Y-87249500D01*
X144861459Y-87249500D01*
X144861457Y-87249500D01*
X144668170Y-87287947D01*
X144668160Y-87287950D01*
X144486092Y-87363364D01*
X144486079Y-87363371D01*
X144322218Y-87472860D01*
X144322214Y-87472863D01*
X144182863Y-87612214D01*
X144182860Y-87612218D01*
X144073371Y-87776079D01*
X144073364Y-87776092D01*
X143997950Y-87958160D01*
X143997947Y-87958170D01*
X143959500Y-88151456D01*
X143959500Y-88151459D01*
X143959500Y-88348541D01*
X143959500Y-88348543D01*
X143959499Y-88348543D01*
X143420500Y-88348543D01*
X143420500Y-88348541D01*
X143420500Y-88151459D01*
X143420500Y-88151456D01*
X143382052Y-87958170D01*
X143382051Y-87958169D01*
X143382051Y-87958165D01*
X143382049Y-87958160D01*
X143306635Y-87776092D01*
X143306628Y-87776079D01*
X143197139Y-87612218D01*
X143197136Y-87612214D01*
X143057785Y-87472863D01*
X143057781Y-87472860D01*
X142893920Y-87363371D01*
X142893907Y-87363364D01*
X142711839Y-87287950D01*
X142711829Y-87287947D01*
X142518543Y-87249500D01*
X142518541Y-87249500D01*
X142321459Y-87249500D01*
X142321457Y-87249500D01*
X142128170Y-87287947D01*
X142128160Y-87287950D01*
X141946092Y-87363364D01*
X141946079Y-87363371D01*
X141782218Y-87472860D01*
X141782214Y-87472863D01*
X141642863Y-87612214D01*
X141642860Y-87612218D01*
X141533371Y-87776079D01*
X141533364Y-87776092D01*
X141457950Y-87958160D01*
X141457947Y-87958170D01*
X141419500Y-88151456D01*
X141419500Y-88151459D01*
X141419500Y-88348541D01*
X141419500Y-88348543D01*
X141419499Y-88348543D01*
X140880500Y-88348543D01*
X140880500Y-88348541D01*
X140880500Y-88151459D01*
X140880500Y-88151456D01*
X140842052Y-87958170D01*
X140842051Y-87958169D01*
X140842051Y-87958165D01*
X140842049Y-87958160D01*
X140766635Y-87776092D01*
X140766628Y-87776079D01*
X140657139Y-87612218D01*
X140657136Y-87612214D01*
X140517785Y-87472863D01*
X140517781Y-87472860D01*
X140353920Y-87363371D01*
X140353907Y-87363364D01*
X140171839Y-87287950D01*
X140171829Y-87287947D01*
X139978543Y-87249500D01*
X139978541Y-87249500D01*
X139781459Y-87249500D01*
X139781457Y-87249500D01*
X139588170Y-87287947D01*
X139588160Y-87287950D01*
X139406092Y-87363364D01*
X139406079Y-87363371D01*
X139242218Y-87472860D01*
X139242214Y-87472863D01*
X139102863Y-87612214D01*
X139102860Y-87612218D01*
X138993371Y-87776079D01*
X138993364Y-87776092D01*
X138917950Y-87958160D01*
X138917947Y-87958170D01*
X138879500Y-88151456D01*
X138879500Y-88151459D01*
X138879500Y-88348541D01*
X138879500Y-88348543D01*
X138879499Y-88348543D01*
X138340500Y-88348543D01*
X138340500Y-87385180D01*
X138340500Y-87385177D01*
X138331768Y-87341282D01*
X138331767Y-87341281D01*
X138331767Y-87341278D01*
X138298504Y-87291496D01*
X138293197Y-87287950D01*
X138248724Y-87258234D01*
X138248717Y-87258231D01*
X138204822Y-87249500D01*
X138204820Y-87249500D01*
X136475180Y-87249500D01*
X136475178Y-87249500D01*
X136431282Y-87258231D01*
X136431275Y-87258234D01*
X136381496Y-87291495D01*
X136381495Y-87291496D01*
X136348234Y-87341275D01*
X136348231Y-87341282D01*
X136339500Y-87385177D01*
X136339500Y-87385180D01*
X136339500Y-89114820D01*
X136339500Y-89114822D01*
X136339499Y-89114822D01*
X119250500Y-89114822D01*
X119250500Y-86874499D01*
X119270185Y-86807460D01*
X119322989Y-86761705D01*
X119374500Y-86750499D01*
X158375499Y-86750499D01*
X158442538Y-86770184D01*
G37*
%TD.AperFunction*%
%TD*%
M02*
