M48
; DRILL file KiCad 10.0.3 date 2026-07-04T11:49:52
; FORMAT={-:-/ absolute / metric / decimal}
; #@! TF.CreationDate,2026-07-04T11:49:52+02:00
; #@! TF.GenerationSoftware,Kicad,Pcbnew,10.0.3
; #@! TF.FileFunction,Plated,1,2,PTH
FMAT,2
METRIC
; #@! TA.AperFunction,Plated,PTH,ViaDrill
T1C0.300
; #@! TA.AperFunction,Plated,PTH,ComponentDrill
T2C0.600
; #@! TA.AperFunction,Plated,PTH,ComponentDrill
T3C1.000
%
G90
G05
T1
X123.75Y-94.5
X124.45Y-105.05
X124.5Y-101.25
X124.75Y-108.5
X131.062Y-100.812
X134.5Y-95.0
X137.5Y-106.0
X138.5Y-90.75
X139.5Y-97.859
X147.25Y-93.5
X149.5Y-98.0
X151.5Y-104.5
X152.75Y-96.75
T3
X137.34Y-88.25
X139.88Y-88.25
X142.42Y-88.25
X144.96Y-88.25
X145.67Y-108.25
X147.5Y-88.25
X148.21Y-108.25
X150.75Y-108.25
T2
G00X121.8Y-87.61
M15
G01X121.2Y-87.61
M16
G05
G00X121.8Y-96.25
M15
G01X121.2Y-96.25
M16
G05
G00X125.6Y-87.61
M15
G01X125.0Y-87.61
M16
G05
G00X125.6Y-96.25
M15
G01X125.0Y-96.25
M16
G05
M30
