%TF.GenerationSoftware,KiCad,Pcbnew,10.0.3*%
%TF.CreationDate,2026-07-04T11:49:47+02:00*%
%TF.ProjectId,TelemetryFirstVersion,54656c65-6d65-4747-9279-466972737456,rev?*%
%TF.SameCoordinates,Original*%
%TF.FileFunction,Legend,Top*%
%TF.FilePolarity,Positive*%
%FSLAX46Y46*%
G04 Gerber Fmt 4.6, Leading zero omitted, Abs format (unit mm)*
G04 Created by KiCad (PCBNEW 10.0.3) date 2026-07-04 11:49:47*
%MOMM*%
%LPD*%
G01*
G04 APERTURE LIST*
%ADD10C,0.150000*%
%ADD11C,0.120000*%
G04 APERTURE END LIST*
D10*
X126738095Y-107306819D02*
X127309523Y-107306819D01*
X127023809Y-108306819D02*
X127023809Y-107306819D01*
X127642857Y-108306819D02*
X127642857Y-107306819D01*
X127642857Y-107306819D02*
X128023809Y-107306819D01*
X128023809Y-107306819D02*
X128119047Y-107354438D01*
X128119047Y-107354438D02*
X128166666Y-107402057D01*
X128166666Y-107402057D02*
X128214285Y-107497295D01*
X128214285Y-107497295D02*
X128214285Y-107640152D01*
X128214285Y-107640152D02*
X128166666Y-107735390D01*
X128166666Y-107735390D02*
X128119047Y-107783009D01*
X128119047Y-107783009D02*
X128023809Y-107830628D01*
X128023809Y-107830628D02*
X127642857Y-107830628D01*
X129166666Y-108306819D02*
X128595238Y-108306819D01*
X128880952Y-108306819D02*
X128880952Y-107306819D01*
X128880952Y-107306819D02*
X128785714Y-107449676D01*
X128785714Y-107449676D02*
X128690476Y-107544914D01*
X128690476Y-107544914D02*
X128595238Y-107592533D01*
X123988095Y-97704819D02*
X123988095Y-98514342D01*
X123988095Y-98514342D02*
X124035714Y-98609580D01*
X124035714Y-98609580D02*
X124083333Y-98657200D01*
X124083333Y-98657200D02*
X124178571Y-98704819D01*
X124178571Y-98704819D02*
X124369047Y-98704819D01*
X124369047Y-98704819D02*
X124464285Y-98657200D01*
X124464285Y-98657200D02*
X124511904Y-98609580D01*
X124511904Y-98609580D02*
X124559523Y-98514342D01*
X124559523Y-98514342D02*
X124559523Y-97704819D01*
X125559523Y-98704819D02*
X124988095Y-98704819D01*
X125273809Y-98704819D02*
X125273809Y-97704819D01*
X125273809Y-97704819D02*
X125178571Y-97847676D01*
X125178571Y-97847676D02*
X125083333Y-97942914D01*
X125083333Y-97942914D02*
X124988095Y-97990533D01*
X136988095Y-92204819D02*
X136988095Y-93014342D01*
X136988095Y-93014342D02*
X137035714Y-93109580D01*
X137035714Y-93109580D02*
X137083333Y-93157200D01*
X137083333Y-93157200D02*
X137178571Y-93204819D01*
X137178571Y-93204819D02*
X137369047Y-93204819D01*
X137369047Y-93204819D02*
X137464285Y-93157200D01*
X137464285Y-93157200D02*
X137511904Y-93109580D01*
X137511904Y-93109580D02*
X137559523Y-93014342D01*
X137559523Y-93014342D02*
X137559523Y-92204819D01*
X137988095Y-92300057D02*
X138035714Y-92252438D01*
X138035714Y-92252438D02*
X138130952Y-92204819D01*
X138130952Y-92204819D02*
X138369047Y-92204819D01*
X138369047Y-92204819D02*
X138464285Y-92252438D01*
X138464285Y-92252438D02*
X138511904Y-92300057D01*
X138511904Y-92300057D02*
X138559523Y-92395295D01*
X138559523Y-92395295D02*
X138559523Y-92490533D01*
X138559523Y-92490533D02*
X138511904Y-92633390D01*
X138511904Y-92633390D02*
X137940476Y-93204819D01*
X137940476Y-93204819D02*
X138559523Y-93204819D01*
X148238095Y-90306819D02*
X148809523Y-90306819D01*
X148523809Y-91306819D02*
X148523809Y-90306819D01*
X149142857Y-91306819D02*
X149142857Y-90306819D01*
X149142857Y-90306819D02*
X149523809Y-90306819D01*
X149523809Y-90306819D02*
X149619047Y-90354438D01*
X149619047Y-90354438D02*
X149666666Y-90402057D01*
X149666666Y-90402057D02*
X149714285Y-90497295D01*
X149714285Y-90497295D02*
X149714285Y-90640152D01*
X149714285Y-90640152D02*
X149666666Y-90735390D01*
X149666666Y-90735390D02*
X149619047Y-90783009D01*
X149619047Y-90783009D02*
X149523809Y-90830628D01*
X149523809Y-90830628D02*
X149142857Y-90830628D01*
X150095238Y-90402057D02*
X150142857Y-90354438D01*
X150142857Y-90354438D02*
X150238095Y-90306819D01*
X150238095Y-90306819D02*
X150476190Y-90306819D01*
X150476190Y-90306819D02*
X150571428Y-90354438D01*
X150571428Y-90354438D02*
X150619047Y-90402057D01*
X150619047Y-90402057D02*
X150666666Y-90497295D01*
X150666666Y-90497295D02*
X150666666Y-90592533D01*
X150666666Y-90592533D02*
X150619047Y-90735390D01*
X150619047Y-90735390D02*
X150047619Y-91306819D01*
X150047619Y-91306819D02*
X150666666Y-91306819D01*
X132920833Y-105104819D02*
X132587500Y-104628628D01*
X132349405Y-105104819D02*
X132349405Y-104104819D01*
X132349405Y-104104819D02*
X132730357Y-104104819D01*
X132730357Y-104104819D02*
X132825595Y-104152438D01*
X132825595Y-104152438D02*
X132873214Y-104200057D01*
X132873214Y-104200057D02*
X132920833Y-104295295D01*
X132920833Y-104295295D02*
X132920833Y-104438152D01*
X132920833Y-104438152D02*
X132873214Y-104533390D01*
X132873214Y-104533390D02*
X132825595Y-104581009D01*
X132825595Y-104581009D02*
X132730357Y-104628628D01*
X132730357Y-104628628D02*
X132349405Y-104628628D01*
X133777976Y-104104819D02*
X133587500Y-104104819D01*
X133587500Y-104104819D02*
X133492262Y-104152438D01*
X133492262Y-104152438D02*
X133444643Y-104200057D01*
X133444643Y-104200057D02*
X133349405Y-104342914D01*
X133349405Y-104342914D02*
X133301786Y-104533390D01*
X133301786Y-104533390D02*
X133301786Y-104914342D01*
X133301786Y-104914342D02*
X133349405Y-105009580D01*
X133349405Y-105009580D02*
X133397024Y-105057200D01*
X133397024Y-105057200D02*
X133492262Y-105104819D01*
X133492262Y-105104819D02*
X133682738Y-105104819D01*
X133682738Y-105104819D02*
X133777976Y-105057200D01*
X133777976Y-105057200D02*
X133825595Y-105009580D01*
X133825595Y-105009580D02*
X133873214Y-104914342D01*
X133873214Y-104914342D02*
X133873214Y-104676247D01*
X133873214Y-104676247D02*
X133825595Y-104581009D01*
X133825595Y-104581009D02*
X133777976Y-104533390D01*
X133777976Y-104533390D02*
X133682738Y-104485771D01*
X133682738Y-104485771D02*
X133492262Y-104485771D01*
X133492262Y-104485771D02*
X133397024Y-104533390D01*
X133397024Y-104533390D02*
X133349405Y-104581009D01*
X133349405Y-104581009D02*
X133301786Y-104676247D01*
X134609580Y-100454166D02*
X134657200Y-100501785D01*
X134657200Y-100501785D02*
X134704819Y-100644642D01*
X134704819Y-100644642D02*
X134704819Y-100739880D01*
X134704819Y-100739880D02*
X134657200Y-100882737D01*
X134657200Y-100882737D02*
X134561961Y-100977975D01*
X134561961Y-100977975D02*
X134466723Y-101025594D01*
X134466723Y-101025594D02*
X134276247Y-101073213D01*
X134276247Y-101073213D02*
X134133390Y-101073213D01*
X134133390Y-101073213D02*
X133942914Y-101025594D01*
X133942914Y-101025594D02*
X133847676Y-100977975D01*
X133847676Y-100977975D02*
X133752438Y-100882737D01*
X133752438Y-100882737D02*
X133704819Y-100739880D01*
X133704819Y-100739880D02*
X133704819Y-100644642D01*
X133704819Y-100644642D02*
X133752438Y-100501785D01*
X133752438Y-100501785D02*
X133800057Y-100454166D01*
X134038152Y-99597023D02*
X134704819Y-99597023D01*
X133657200Y-99835118D02*
X134371485Y-100073213D01*
X134371485Y-100073213D02*
X134371485Y-99454166D01*
X127666666Y-96454819D02*
X127666666Y-97169104D01*
X127666666Y-97169104D02*
X127619047Y-97311961D01*
X127619047Y-97311961D02*
X127523809Y-97407200D01*
X127523809Y-97407200D02*
X127380952Y-97454819D01*
X127380952Y-97454819D02*
X127285714Y-97454819D01*
X128666666Y-97454819D02*
X128095238Y-97454819D01*
X128380952Y-97454819D02*
X128380952Y-96454819D01*
X128380952Y-96454819D02*
X128285714Y-96597676D01*
X128285714Y-96597676D02*
X128190476Y-96692914D01*
X128190476Y-96692914D02*
X128095238Y-96740533D01*
X153988095Y-95954819D02*
X153988095Y-96764342D01*
X153988095Y-96764342D02*
X154035714Y-96859580D01*
X154035714Y-96859580D02*
X154083333Y-96907200D01*
X154083333Y-96907200D02*
X154178571Y-96954819D01*
X154178571Y-96954819D02*
X154369047Y-96954819D01*
X154369047Y-96954819D02*
X154464285Y-96907200D01*
X154464285Y-96907200D02*
X154511904Y-96859580D01*
X154511904Y-96859580D02*
X154559523Y-96764342D01*
X154559523Y-96764342D02*
X154559523Y-95954819D01*
X154940476Y-95954819D02*
X155559523Y-95954819D01*
X155559523Y-95954819D02*
X155226190Y-96335771D01*
X155226190Y-96335771D02*
X155369047Y-96335771D01*
X155369047Y-96335771D02*
X155464285Y-96383390D01*
X155464285Y-96383390D02*
X155511904Y-96431009D01*
X155511904Y-96431009D02*
X155559523Y-96526247D01*
X155559523Y-96526247D02*
X155559523Y-96764342D01*
X155559523Y-96764342D02*
X155511904Y-96859580D01*
X155511904Y-96859580D02*
X155464285Y-96907200D01*
X155464285Y-96907200D02*
X155369047Y-96954819D01*
X155369047Y-96954819D02*
X155083333Y-96954819D01*
X155083333Y-96954819D02*
X154988095Y-96907200D01*
X154988095Y-96907200D02*
X154940476Y-96859580D01*
X140583333Y-110204819D02*
X140250000Y-109728628D01*
X140011905Y-110204819D02*
X140011905Y-109204819D01*
X140011905Y-109204819D02*
X140392857Y-109204819D01*
X140392857Y-109204819D02*
X140488095Y-109252438D01*
X140488095Y-109252438D02*
X140535714Y-109300057D01*
X140535714Y-109300057D02*
X140583333Y-109395295D01*
X140583333Y-109395295D02*
X140583333Y-109538152D01*
X140583333Y-109538152D02*
X140535714Y-109633390D01*
X140535714Y-109633390D02*
X140488095Y-109681009D01*
X140488095Y-109681009D02*
X140392857Y-109728628D01*
X140392857Y-109728628D02*
X140011905Y-109728628D01*
X141488095Y-109204819D02*
X141011905Y-109204819D01*
X141011905Y-109204819D02*
X140964286Y-109681009D01*
X140964286Y-109681009D02*
X141011905Y-109633390D01*
X141011905Y-109633390D02*
X141107143Y-109585771D01*
X141107143Y-109585771D02*
X141345238Y-109585771D01*
X141345238Y-109585771D02*
X141440476Y-109633390D01*
X141440476Y-109633390D02*
X141488095Y-109681009D01*
X141488095Y-109681009D02*
X141535714Y-109776247D01*
X141535714Y-109776247D02*
X141535714Y-110014342D01*
X141535714Y-110014342D02*
X141488095Y-110109580D01*
X141488095Y-110109580D02*
X141440476Y-110157200D01*
X141440476Y-110157200D02*
X141345238Y-110204819D01*
X141345238Y-110204819D02*
X141107143Y-110204819D01*
X141107143Y-110204819D02*
X141011905Y-110157200D01*
X141011905Y-110157200D02*
X140964286Y-110109580D01*
X157083333Y-99609580D02*
X157035714Y-99657200D01*
X157035714Y-99657200D02*
X156892857Y-99704819D01*
X156892857Y-99704819D02*
X156797619Y-99704819D01*
X156797619Y-99704819D02*
X156654762Y-99657200D01*
X156654762Y-99657200D02*
X156559524Y-99561961D01*
X156559524Y-99561961D02*
X156511905Y-99466723D01*
X156511905Y-99466723D02*
X156464286Y-99276247D01*
X156464286Y-99276247D02*
X156464286Y-99133390D01*
X156464286Y-99133390D02*
X156511905Y-98942914D01*
X156511905Y-98942914D02*
X156559524Y-98847676D01*
X156559524Y-98847676D02*
X156654762Y-98752438D01*
X156654762Y-98752438D02*
X156797619Y-98704819D01*
X156797619Y-98704819D02*
X156892857Y-98704819D01*
X156892857Y-98704819D02*
X157035714Y-98752438D01*
X157035714Y-98752438D02*
X157083333Y-98800057D01*
X157988095Y-98704819D02*
X157511905Y-98704819D01*
X157511905Y-98704819D02*
X157464286Y-99181009D01*
X157464286Y-99181009D02*
X157511905Y-99133390D01*
X157511905Y-99133390D02*
X157607143Y-99085771D01*
X157607143Y-99085771D02*
X157845238Y-99085771D01*
X157845238Y-99085771D02*
X157940476Y-99133390D01*
X157940476Y-99133390D02*
X157988095Y-99181009D01*
X157988095Y-99181009D02*
X158035714Y-99276247D01*
X158035714Y-99276247D02*
X158035714Y-99514342D01*
X158035714Y-99514342D02*
X157988095Y-99609580D01*
X157988095Y-99609580D02*
X157940476Y-99657200D01*
X157940476Y-99657200D02*
X157845238Y-99704819D01*
X157845238Y-99704819D02*
X157607143Y-99704819D01*
X157607143Y-99704819D02*
X157511905Y-99657200D01*
X157511905Y-99657200D02*
X157464286Y-99609580D01*
X129833333Y-90454819D02*
X129500000Y-89978628D01*
X129261905Y-90454819D02*
X129261905Y-89454819D01*
X129261905Y-89454819D02*
X129642857Y-89454819D01*
X129642857Y-89454819D02*
X129738095Y-89502438D01*
X129738095Y-89502438D02*
X129785714Y-89550057D01*
X129785714Y-89550057D02*
X129833333Y-89645295D01*
X129833333Y-89645295D02*
X129833333Y-89788152D01*
X129833333Y-89788152D02*
X129785714Y-89883390D01*
X129785714Y-89883390D02*
X129738095Y-89931009D01*
X129738095Y-89931009D02*
X129642857Y-89978628D01*
X129642857Y-89978628D02*
X129261905Y-89978628D01*
X130785714Y-90454819D02*
X130214286Y-90454819D01*
X130500000Y-90454819D02*
X130500000Y-89454819D01*
X130500000Y-89454819D02*
X130404762Y-89597676D01*
X130404762Y-89597676D02*
X130309524Y-89692914D01*
X130309524Y-89692914D02*
X130214286Y-89740533D01*
X130333333Y-94454819D02*
X130000000Y-93978628D01*
X129761905Y-94454819D02*
X129761905Y-93454819D01*
X129761905Y-93454819D02*
X130142857Y-93454819D01*
X130142857Y-93454819D02*
X130238095Y-93502438D01*
X130238095Y-93502438D02*
X130285714Y-93550057D01*
X130285714Y-93550057D02*
X130333333Y-93645295D01*
X130333333Y-93645295D02*
X130333333Y-93788152D01*
X130333333Y-93788152D02*
X130285714Y-93883390D01*
X130285714Y-93883390D02*
X130238095Y-93931009D01*
X130238095Y-93931009D02*
X130142857Y-93978628D01*
X130142857Y-93978628D02*
X129761905Y-93978628D01*
X131190476Y-93788152D02*
X131190476Y-94454819D01*
X130952381Y-93407200D02*
X130714286Y-94121485D01*
X130714286Y-94121485D02*
X131333333Y-94121485D01*
X154333333Y-93954819D02*
X154000000Y-93478628D01*
X153761905Y-93954819D02*
X153761905Y-92954819D01*
X153761905Y-92954819D02*
X154142857Y-92954819D01*
X154142857Y-92954819D02*
X154238095Y-93002438D01*
X154238095Y-93002438D02*
X154285714Y-93050057D01*
X154285714Y-93050057D02*
X154333333Y-93145295D01*
X154333333Y-93145295D02*
X154333333Y-93288152D01*
X154333333Y-93288152D02*
X154285714Y-93383390D01*
X154285714Y-93383390D02*
X154238095Y-93431009D01*
X154238095Y-93431009D02*
X154142857Y-93478628D01*
X154142857Y-93478628D02*
X153761905Y-93478628D01*
X154666667Y-92954819D02*
X155285714Y-92954819D01*
X155285714Y-92954819D02*
X154952381Y-93335771D01*
X154952381Y-93335771D02*
X155095238Y-93335771D01*
X155095238Y-93335771D02*
X155190476Y-93383390D01*
X155190476Y-93383390D02*
X155238095Y-93431009D01*
X155238095Y-93431009D02*
X155285714Y-93526247D01*
X155285714Y-93526247D02*
X155285714Y-93764342D01*
X155285714Y-93764342D02*
X155238095Y-93859580D01*
X155238095Y-93859580D02*
X155190476Y-93907200D01*
X155190476Y-93907200D02*
X155095238Y-93954819D01*
X155095238Y-93954819D02*
X154809524Y-93954819D01*
X154809524Y-93954819D02*
X154714286Y-93907200D01*
X154714286Y-93907200D02*
X154666667Y-93859580D01*
X152928571Y-108454819D02*
X152928571Y-109264342D01*
X152928571Y-109264342D02*
X152976190Y-109359580D01*
X152976190Y-109359580D02*
X153023809Y-109407200D01*
X153023809Y-109407200D02*
X153119047Y-109454819D01*
X153119047Y-109454819D02*
X153309523Y-109454819D01*
X153309523Y-109454819D02*
X153404761Y-109407200D01*
X153404761Y-109407200D02*
X153452380Y-109359580D01*
X153452380Y-109359580D02*
X153499999Y-109264342D01*
X153499999Y-109264342D02*
X153499999Y-108454819D01*
X153928571Y-109169104D02*
X154404761Y-109169104D01*
X153833333Y-109454819D02*
X154166666Y-108454819D01*
X154166666Y-108454819D02*
X154499999Y-109454819D01*
X155404761Y-109454819D02*
X155071428Y-108978628D01*
X154833333Y-109454819D02*
X154833333Y-108454819D01*
X154833333Y-108454819D02*
X155214285Y-108454819D01*
X155214285Y-108454819D02*
X155309523Y-108502438D01*
X155309523Y-108502438D02*
X155357142Y-108550057D01*
X155357142Y-108550057D02*
X155404761Y-108645295D01*
X155404761Y-108645295D02*
X155404761Y-108788152D01*
X155404761Y-108788152D02*
X155357142Y-108883390D01*
X155357142Y-108883390D02*
X155309523Y-108931009D01*
X155309523Y-108931009D02*
X155214285Y-108978628D01*
X155214285Y-108978628D02*
X154833333Y-108978628D01*
X155690476Y-108454819D02*
X156261904Y-108454819D01*
X155976190Y-109454819D02*
X155976190Y-108454819D01*
X157119047Y-109454819D02*
X156547619Y-109454819D01*
X156833333Y-109454819D02*
X156833333Y-108454819D01*
X156833333Y-108454819D02*
X156738095Y-108597676D01*
X156738095Y-108597676D02*
X156642857Y-108692914D01*
X156642857Y-108692914D02*
X156547619Y-108740533D01*
X135974405Y-110204819D02*
X135974405Y-109204819D01*
X135974405Y-109204819D02*
X136212500Y-109204819D01*
X136212500Y-109204819D02*
X136355357Y-109252438D01*
X136355357Y-109252438D02*
X136450595Y-109347676D01*
X136450595Y-109347676D02*
X136498214Y-109442914D01*
X136498214Y-109442914D02*
X136545833Y-109633390D01*
X136545833Y-109633390D02*
X136545833Y-109776247D01*
X136545833Y-109776247D02*
X136498214Y-109966723D01*
X136498214Y-109966723D02*
X136450595Y-110061961D01*
X136450595Y-110061961D02*
X136355357Y-110157200D01*
X136355357Y-110157200D02*
X136212500Y-110204819D01*
X136212500Y-110204819D02*
X135974405Y-110204819D01*
X137498214Y-110204819D02*
X136926786Y-110204819D01*
X137212500Y-110204819D02*
X137212500Y-109204819D01*
X137212500Y-109204819D02*
X137117262Y-109347676D01*
X137117262Y-109347676D02*
X137022024Y-109442914D01*
X137022024Y-109442914D02*
X136926786Y-109490533D01*
X132666667Y-91407200D02*
X132809524Y-91454819D01*
X132809524Y-91454819D02*
X133047619Y-91454819D01*
X133047619Y-91454819D02*
X133142857Y-91407200D01*
X133142857Y-91407200D02*
X133190476Y-91359580D01*
X133190476Y-91359580D02*
X133238095Y-91264342D01*
X133238095Y-91264342D02*
X133238095Y-91169104D01*
X133238095Y-91169104D02*
X133190476Y-91073866D01*
X133190476Y-91073866D02*
X133142857Y-91026247D01*
X133142857Y-91026247D02*
X133047619Y-90978628D01*
X133047619Y-90978628D02*
X132857143Y-90931009D01*
X132857143Y-90931009D02*
X132761905Y-90883390D01*
X132761905Y-90883390D02*
X132714286Y-90835771D01*
X132714286Y-90835771D02*
X132666667Y-90740533D01*
X132666667Y-90740533D02*
X132666667Y-90645295D01*
X132666667Y-90645295D02*
X132714286Y-90550057D01*
X132714286Y-90550057D02*
X132761905Y-90502438D01*
X132761905Y-90502438D02*
X132857143Y-90454819D01*
X132857143Y-90454819D02*
X133095238Y-90454819D01*
X133095238Y-90454819D02*
X133238095Y-90502438D01*
X133571429Y-90454819D02*
X133809524Y-91454819D01*
X133809524Y-91454819D02*
X134000000Y-90740533D01*
X134000000Y-90740533D02*
X134190476Y-91454819D01*
X134190476Y-91454819D02*
X134428572Y-90454819D01*
X134809524Y-91454819D02*
X134809524Y-90454819D01*
X134809524Y-90454819D02*
X135047619Y-90454819D01*
X135047619Y-90454819D02*
X135190476Y-90502438D01*
X135190476Y-90502438D02*
X135285714Y-90597676D01*
X135285714Y-90597676D02*
X135333333Y-90692914D01*
X135333333Y-90692914D02*
X135380952Y-90883390D01*
X135380952Y-90883390D02*
X135380952Y-91026247D01*
X135380952Y-91026247D02*
X135333333Y-91216723D01*
X135333333Y-91216723D02*
X135285714Y-91311961D01*
X135285714Y-91311961D02*
X135190476Y-91407200D01*
X135190476Y-91407200D02*
X135047619Y-91454819D01*
X135047619Y-91454819D02*
X134809524Y-91454819D01*
X136333333Y-91454819D02*
X135761905Y-91454819D01*
X136047619Y-91454819D02*
X136047619Y-90454819D01*
X136047619Y-90454819D02*
X135952381Y-90597676D01*
X135952381Y-90597676D02*
X135857143Y-90692914D01*
X135857143Y-90692914D02*
X135761905Y-90740533D01*
X149833333Y-103067319D02*
X149500000Y-102591128D01*
X149261905Y-103067319D02*
X149261905Y-102067319D01*
X149261905Y-102067319D02*
X149642857Y-102067319D01*
X149642857Y-102067319D02*
X149738095Y-102114938D01*
X149738095Y-102114938D02*
X149785714Y-102162557D01*
X149785714Y-102162557D02*
X149833333Y-102257795D01*
X149833333Y-102257795D02*
X149833333Y-102400652D01*
X149833333Y-102400652D02*
X149785714Y-102495890D01*
X149785714Y-102495890D02*
X149738095Y-102543509D01*
X149738095Y-102543509D02*
X149642857Y-102591128D01*
X149642857Y-102591128D02*
X149261905Y-102591128D01*
X150214286Y-102162557D02*
X150261905Y-102114938D01*
X150261905Y-102114938D02*
X150357143Y-102067319D01*
X150357143Y-102067319D02*
X150595238Y-102067319D01*
X150595238Y-102067319D02*
X150690476Y-102114938D01*
X150690476Y-102114938D02*
X150738095Y-102162557D01*
X150738095Y-102162557D02*
X150785714Y-102257795D01*
X150785714Y-102257795D02*
X150785714Y-102353033D01*
X150785714Y-102353033D02*
X150738095Y-102495890D01*
X150738095Y-102495890D02*
X150166667Y-103067319D01*
X150166667Y-103067319D02*
X150785714Y-103067319D01*
X122083333Y-110359580D02*
X122035714Y-110407200D01*
X122035714Y-110407200D02*
X121892857Y-110454819D01*
X121892857Y-110454819D02*
X121797619Y-110454819D01*
X121797619Y-110454819D02*
X121654762Y-110407200D01*
X121654762Y-110407200D02*
X121559524Y-110311961D01*
X121559524Y-110311961D02*
X121511905Y-110216723D01*
X121511905Y-110216723D02*
X121464286Y-110026247D01*
X121464286Y-110026247D02*
X121464286Y-109883390D01*
X121464286Y-109883390D02*
X121511905Y-109692914D01*
X121511905Y-109692914D02*
X121559524Y-109597676D01*
X121559524Y-109597676D02*
X121654762Y-109502438D01*
X121654762Y-109502438D02*
X121797619Y-109454819D01*
X121797619Y-109454819D02*
X121892857Y-109454819D01*
X121892857Y-109454819D02*
X122035714Y-109502438D01*
X122035714Y-109502438D02*
X122083333Y-109550057D01*
X123035714Y-110454819D02*
X122464286Y-110454819D01*
X122750000Y-110454819D02*
X122750000Y-109454819D01*
X122750000Y-109454819D02*
X122654762Y-109597676D01*
X122654762Y-109597676D02*
X122559524Y-109692914D01*
X122559524Y-109692914D02*
X122464286Y-109740533D01*
X132383333Y-110109580D02*
X132335714Y-110157200D01*
X132335714Y-110157200D02*
X132192857Y-110204819D01*
X132192857Y-110204819D02*
X132097619Y-110204819D01*
X132097619Y-110204819D02*
X131954762Y-110157200D01*
X131954762Y-110157200D02*
X131859524Y-110061961D01*
X131859524Y-110061961D02*
X131811905Y-109966723D01*
X131811905Y-109966723D02*
X131764286Y-109776247D01*
X131764286Y-109776247D02*
X131764286Y-109633390D01*
X131764286Y-109633390D02*
X131811905Y-109442914D01*
X131811905Y-109442914D02*
X131859524Y-109347676D01*
X131859524Y-109347676D02*
X131954762Y-109252438D01*
X131954762Y-109252438D02*
X132097619Y-109204819D01*
X132097619Y-109204819D02*
X132192857Y-109204819D01*
X132192857Y-109204819D02*
X132335714Y-109252438D01*
X132335714Y-109252438D02*
X132383333Y-109300057D01*
X132764286Y-109300057D02*
X132811905Y-109252438D01*
X132811905Y-109252438D02*
X132907143Y-109204819D01*
X132907143Y-109204819D02*
X133145238Y-109204819D01*
X133145238Y-109204819D02*
X133240476Y-109252438D01*
X133240476Y-109252438D02*
X133288095Y-109300057D01*
X133288095Y-109300057D02*
X133335714Y-109395295D01*
X133335714Y-109395295D02*
X133335714Y-109490533D01*
X133335714Y-109490533D02*
X133288095Y-109633390D01*
X133288095Y-109633390D02*
X132716667Y-110204819D01*
X132716667Y-110204819D02*
X133335714Y-110204819D01*
X136083333Y-94859580D02*
X136035714Y-94907200D01*
X136035714Y-94907200D02*
X135892857Y-94954819D01*
X135892857Y-94954819D02*
X135797619Y-94954819D01*
X135797619Y-94954819D02*
X135654762Y-94907200D01*
X135654762Y-94907200D02*
X135559524Y-94811961D01*
X135559524Y-94811961D02*
X135511905Y-94716723D01*
X135511905Y-94716723D02*
X135464286Y-94526247D01*
X135464286Y-94526247D02*
X135464286Y-94383390D01*
X135464286Y-94383390D02*
X135511905Y-94192914D01*
X135511905Y-94192914D02*
X135559524Y-94097676D01*
X135559524Y-94097676D02*
X135654762Y-94002438D01*
X135654762Y-94002438D02*
X135797619Y-93954819D01*
X135797619Y-93954819D02*
X135892857Y-93954819D01*
X135892857Y-93954819D02*
X136035714Y-94002438D01*
X136035714Y-94002438D02*
X136083333Y-94050057D01*
X136416667Y-93954819D02*
X137035714Y-93954819D01*
X137035714Y-93954819D02*
X136702381Y-94335771D01*
X136702381Y-94335771D02*
X136845238Y-94335771D01*
X136845238Y-94335771D02*
X136940476Y-94383390D01*
X136940476Y-94383390D02*
X136988095Y-94431009D01*
X136988095Y-94431009D02*
X137035714Y-94526247D01*
X137035714Y-94526247D02*
X137035714Y-94764342D01*
X137035714Y-94764342D02*
X136988095Y-94859580D01*
X136988095Y-94859580D02*
X136940476Y-94907200D01*
X136940476Y-94907200D02*
X136845238Y-94954819D01*
X136845238Y-94954819D02*
X136559524Y-94954819D01*
X136559524Y-94954819D02*
X136464286Y-94907200D01*
X136464286Y-94907200D02*
X136416667Y-94859580D01*
%TO.C,TP1*%
D11*
X128950000Y-109500000D02*
G75*
G02*
X127050000Y-109500000I-950000J0D01*
G01*
X127050000Y-109500000D02*
G75*
G02*
X128950000Y-109500000I950000J0D01*
G01*
%TO.C,U1*%
X122900000Y-99340000D02*
X126660000Y-99340000D01*
X122900000Y-106160000D02*
X126660000Y-106160000D01*
X126660000Y-99340000D02*
X126660000Y-100600000D01*
X126660000Y-106160000D02*
X126660000Y-104900000D01*
X121620000Y-99440000D02*
X121380000Y-99110000D01*
X121860000Y-99110000D01*
X121620000Y-99440000D01*
G36*
X121620000Y-99440000D02*
G01*
X121380000Y-99110000D01*
X121860000Y-99110000D01*
X121620000Y-99440000D01*
G37*
%TO.C,U2*%
X138927500Y-94177500D02*
X139227500Y-94177500D01*
X138927500Y-94477500D02*
X138927500Y-94177500D01*
X138927500Y-101397500D02*
X138927500Y-101097500D01*
X139227500Y-101397500D02*
X138927500Y-101397500D01*
X145847500Y-94177500D02*
X146147500Y-94177500D01*
X146147500Y-94177500D02*
X146147500Y-94477500D01*
X146147500Y-101097500D02*
X146147500Y-101397500D01*
X146147500Y-101397500D02*
X145847500Y-101397500D01*
X138287500Y-94467500D02*
X137947500Y-93997500D01*
X138627500Y-93997500D01*
X138287500Y-94467500D01*
G36*
X138287500Y-94467500D02*
G01*
X137947500Y-93997500D01*
X138627500Y-93997500D01*
X138287500Y-94467500D01*
G37*
%TO.C,TP2*%
X150450000Y-92500000D02*
G75*
G02*
X148550000Y-92500000I-950000J0D01*
G01*
X148550000Y-92500000D02*
G75*
G02*
X150450000Y-92500000I950000J0D01*
G01*
%TO.C,R6*%
X133314564Y-102265000D02*
X132860436Y-102265000D01*
X133314564Y-103735000D02*
X132860436Y-103735000D01*
%TO.C,C4*%
X135515000Y-100598752D02*
X135515000Y-100076248D01*
X136985000Y-100598752D02*
X136985000Y-100076248D01*
%TO.C,J1*%
X122550000Y-87260000D02*
X124250000Y-87260000D01*
X122550000Y-96600000D02*
X124250000Y-96600000D01*
%TO.C,U3*%
X150502500Y-98500568D02*
X150502500Y-97365000D01*
X152372500Y-97365000D02*
X152372500Y-98785000D01*
X150497500Y-98795000D02*
X150307500Y-98935000D01*
X150307500Y-98655000D01*
X150497500Y-98795000D01*
G36*
X150497500Y-98795000D02*
G01*
X150307500Y-98935000D01*
X150307500Y-98655000D01*
X150497500Y-98795000D01*
G37*
%TO.C,R5*%
X140522936Y-107015000D02*
X140977064Y-107015000D01*
X140522936Y-108485000D02*
X140977064Y-108485000D01*
%TO.C,C5*%
X154748752Y-98052500D02*
X154226248Y-98052500D01*
X154748752Y-99522500D02*
X154226248Y-99522500D01*
%TO.C,R1*%
X127265000Y-89860436D02*
X127265000Y-90314564D01*
X128735000Y-89860436D02*
X128735000Y-90314564D01*
%TO.C,R4*%
X127515000Y-94314564D02*
X127515000Y-93860436D01*
X128985000Y-94314564D02*
X128985000Y-93860436D01*
%TO.C,R3*%
X151752064Y-94552500D02*
X151297936Y-94552500D01*
X151752064Y-96022500D02*
X151297936Y-96022500D01*
%TO.C,UART1*%
X144290000Y-106870000D02*
X144290000Y-109630000D01*
X149480000Y-106870000D02*
X144290000Y-106870000D01*
X149480000Y-106870000D02*
X149480000Y-109630000D01*
X149480000Y-109630000D02*
X144290000Y-109630000D01*
X150750000Y-106870000D02*
X152130000Y-106870000D01*
X152130000Y-106870000D02*
X152130000Y-108250000D01*
%TO.C,D1*%
X135027500Y-106790000D02*
X135027500Y-108710000D01*
X135027500Y-108710000D02*
X137712500Y-108710000D01*
X137712500Y-106790000D02*
X135027500Y-106790000D01*
%TO.C,SWD1*%
X135960000Y-89630000D02*
X135960000Y-88250000D01*
X137340000Y-89630000D02*
X135960000Y-89630000D01*
X138610000Y-86870000D02*
X148880000Y-86870000D01*
X138610000Y-89630000D02*
X138610000Y-86870000D01*
X138610000Y-89630000D02*
X148880000Y-89630000D01*
X148880000Y-89630000D02*
X148880000Y-86870000D01*
%TO.C,R2*%
X151352064Y-100052500D02*
X150897936Y-100052500D01*
X151352064Y-101522500D02*
X150897936Y-101522500D01*
%TO.C,C1*%
X121988748Y-107265000D02*
X122511252Y-107265000D01*
X121988748Y-108735000D02*
X122511252Y-108735000D01*
%TO.C,C2*%
X131988748Y-107015000D02*
X132511252Y-107015000D01*
X131988748Y-108485000D02*
X132511252Y-108485000D01*
%TO.C,C3*%
X135811252Y-96765000D02*
X135288748Y-96765000D01*
X135811252Y-98235000D02*
X135288748Y-98235000D01*
%TD*%
M02*
